<?xml version="1.0" standalone="no"?>
<!DOCTYPE svg PUBLIC "-//W3C//DTD SVG 1.1//EN" "http://www.w3.org/Graphics/SVG/1.1/DTD/svg11.dtd" >
<svg xmlns="http://www.w3.org/2000/svg">
<metadata>
Created by FontForge 20120731 at Thu Mar 17 17:01:36 2016
 By Ads
</metadata>
<defs>
<font id="iconfont" horiz-adv-x="1024" >
  <font-face 
    font-family="iconfont"
    font-weight="500"
    font-stretch="normal"
    units-per-em="1024"
    panose-1="2 0 6 3 0 0 0 0 0 0"
    ascent="896"
    descent="-128"
    x-height="792"
    bbox="0 -121 1024 831"
    underline-thickness="50"
    underline-position="-100"
    unicode-range="U+0078-E622"
  />
<missing-glyph horiz-adv-x="374" 
d="M34 0v682h272v-682h-272zM68 34h204v614h-204v-614z" />
    <glyph glyph-name=".notdef" horiz-adv-x="374" 
d="M34 0v682h272v-682h-272zM68 34h204v614h-204v-614z" />
    <glyph glyph-name=".null" horiz-adv-x="0" 
 />
    <glyph glyph-name="nonmarkingreturn" horiz-adv-x="341" 
 />
    <glyph glyph-name="x" unicode="x" horiz-adv-x="1001" 
d="M281 543q-27 -1 -53 -1h-83q-18 0 -36.5 -6t-32.5 -18.5t-23 -32t-9 -45.5v-76h912v41q0 16 -0.5 30t-0.5 18q0 13 -5 29t-17 29.5t-31.5 22.5t-49.5 9h-133v-97h-438v97zM955 310v-52q0 -23 0.5 -52t0.5 -58t-10.5 -47.5t-26 -30t-33 -16t-31.5 -4.5q-14 -1 -29.5 -0.5
t-29.5 0.5h-32l-45 128h-439l-44 -128h-29h-34q-20 0 -45 1q-25 0 -41 9.5t-25.5 23t-13.5 29.5t-4 30v167h911zM163 247q-12 0 -21 -8.5t-9 -21.5t9 -21.5t21 -8.5q13 0 22 8.5t9 21.5t-9 21.5t-22 8.5zM316 123q-8 -26 -14 -48q-5 -19 -10.5 -37t-7.5 -25t-3 -15t1 -14.5
t9.5 -10.5t21.5 -4h37h67h81h80h64h36q23 0 34 12t2 38q-5 13 -9.5 30.5t-9.5 34.5q-5 19 -11 39h-368zM336 498v228q0 11 2.5 23t10 21.5t20.5 15.5t34 6h188q31 0 51.5 -14.5t20.5 -52.5v-227h-327z" />
    <glyph glyph-name="uniE600" unicode="&#xe600;" 
d="M742 453q-9 0 -16.5 -4.5t-12 -12t-4.5 -17.5v-70q0 -14 10 -24t23.5 -10t23 10t9.5 24v70q0 14 -9.5 24t-23.5 10zM742 247q-9 0 -16.5 -4.5t-12 -12t-4.5 -17.5v-70q0 -7 3 -13.5t7 -11t10.5 -7t12.5 -2.5q5 0 9 1t8 3.5t7 5.5t5 6.5t3 8t1 9.5v70q0 10 -4 17.5t-12 12
t-17 4.5zM338 657h-53q-4 0 -7.5 -1t-6.5 -2.5t-6 -3.5t-5 -4.5t-3.5 -5.5t-2.5 -6.5t-1 -7.5v-73q0 -8 4 -15.5t10.5 -11.5t13.5 -5h63q8 1 14 5t9.5 11.5t3.5 15.5v73q0 13 -9.5 22t-23.5 9zM338 452h-53q-7 0 -12.5 -2.5t-10 -6.5t-7 -9.5t-2.5 -12.5v-73q0 -6 2.5 -11.5
t6 -10t9 -7.5t10.5 -3h63q3 0 6.5 1t5.5 3l6 4q2 2 4 5l2 6q2 3 2.5 6t0.5 7v73q0 9 -4.5 16t-12 11t-16.5 4zM338 250h-53q-9 0 -16 -4t-11.5 -11.5t-4.5 -15.5v-74q0 -8 4 -15t10.5 -11.5t13.5 -5.5h63q12 2 19.5 11t7.5 21v74q0 13 -9.5 22t-23.5 9zM488 657h-54
q-13 0 -22 -9t-9 -22v-73q0 -13 8 -22t20 -10h63q12 1 19.5 10t7.5 22v73q0 9 -4.5 16t-12 11t-16.5 4zM488 452h-54q-13 0 -22 -9t-9 -22v-73q0 -6 2 -11.5t6 -10t9 -7.5t11 -3h63q8 1 14 5.5t9.5 11.5t3.5 15v73q0 13 -10 22t-23 9zM487 250h-54q-8 0 -15.5 -4
t-11.5 -11.5t-4 -15.5v-74q0 -12 8 -21t20 -11h63q12 2 19.5 11t7.5 21v74q0 13 -10 22t-23 9zM902 -25v-1h60q9 0 16.5 5t12 12.5t4.5 16.5q0 13 -8 22.5t-19 11.5h-5q-12 1 -23 6.5t-19 13.5t-13 19t-6 23v415q0 29 -21.5 48.5t-50.5 19.5h-121q-25 2 -42 21.5t-18 46.5
v70q0 19 -10.5 35t-26.5 24.5t-35 8.5h-382q-10 0 -19 -2t-16.5 -6.5t-14 -10.5t-11 -13.5t-7 -16.5t-2.5 -19v-621q-2 -25 -18.5 -42t-41.5 -19q0 -1 -1 -1h-5q-11 -2 -19 -11.5t-8 -22.5q0 -14 10 -23.5t23 -9.5h122h715zM582 90q0 -18 -11 -31.5t-29 -15.5h-308
q-18 2 -30 15.5t-12 31.5v589q0 13 6.5 23.5t17 16.5t23.5 6h295q7 0 14.5 -2.5t13.5 -6.5t10.5 -9.5t7 -12.5t2.5 -15v-589zM795 43h-105q-16 1 -27.5 12.5t-13.5 28.5v395q1 9 5 16t10 12.5t14 8t17 2.5h92q19 0 33.5 -13t14.5 -33v-382q0 -9 -3 -17t-8 -14.5t-12.5 -10.5
t-16.5 -5z" />
    <glyph glyph-name="uniE601" unicode="&#xe601;" 
d="M513 803l-420 -420v-52h21l399 398l398 -398h22v52zM812.5 309q-49.5 0 -84.5 -35.5t-35 -84.5q0 -12 2 -24t6.5 -22.5t11 -20t14.5 -17.5t17.5 -14.5t20 -11.5t21.5 -7v-109h53v109q27 6 48 22.5t33.5 41.5t12.5 53q0 49 -35.5 84.5t-85 35.5zM813 122q-28 0 -48 19.5
t-20 47.5t20 47.5t47.5 19.5t47.5 -19.5t20 -47.5q0 -18 -9 -33.5t-24.5 -24.5t-33.5 -9zM640 189q0 69 48 119.5t117 52.5l-292 293l-315 -314v-377h235v264h159v-264h141v72q-27 15 -48.5 38t-33 53t-11.5 63z" />
    <glyph glyph-name="uniE602" unicode="&#xe602;" 
d="M512 831q-104 0 -178 -74.5t-74 -178.5q0 -75 40 -136.5t105 -91.5q-120 -36 -197.5 -137t-77.5 -230q0 -8 6 -14t14.5 -6t14 6t5.5 14q0 93 46 172t125 124.5t171 45.5q105 0 179 74t74 178.5t-74 179t-179 74.5zM512 365q-88 0 -150 62.5t-62 150.5t62 150.5t150 62.5
t150.5 -62.5t62.5 -150.5t-62.5 -150.5t-150.5 -62.5zM744 287q-7 5 -15 4t-13 -7.5t-4 -15t8 -13.5q42 -32 72.5 -75t46 -93t15.5 -104q0 -5 3 -9.5t7.5 -7.5t9.5 -3q9 0 14.5 6t5.5 14q0 90 -39 169.5t-111 134.5z" />
    <glyph glyph-name="uniE603" unicode="&#xe603;" 
d="M890 474h-74q-1 2 -11.5 28.5t-17.5 39.5l52 51q12 12 12 29.5t-12 29.5l-60 59q-3 4 -7.5 6.5t-8.5 4t-9 2t-10 -0.5l-8 -2q-5 -1 -9 -4t-7 -6l-50 -52q-9 5 -22.5 11t-27 11t-18.5 7v74q0 17 -15 29.5t-33 12.5h-84q-18 0 -33 -12.5t-15 -29.5v-74q-2 -1 -28.5 -11.5
t-39.5 -17.5l-51 52q-12 12 -29.5 12t-29.5 -12l-59 -60q-12 -12 -12 -29.5t12 -29.5l52 -50q-7 -13 -17.5 -39t-11.5 -29h-74q-17 0 -29.5 -15t-12.5 -33v-84q0 -18 12.5 -33t29.5 -15h74q2 -5 7 -18.5t11 -27t11 -22.5l-52 -51q-6 -6 -9 -14t-3 -15.5t3 -15.5t9 -14
l60 -59q6 -6 14 -9t16 -3t15.5 3t13.5 9l50 52q13 -7 39 -17.5t29 -11.5v-74q0 -17 15 -29.5t33 -12.5h84q18 0 33 12.5t15 29.5v74q5 2 14 5.5t17.5 7t19 8t17.5 8.5l51 -52q12 -12 29.5 -12t29.5 12l59 60q12 12 12 29.5t-12 29.5l-52 50q5 9 11 22.5t11 27t7 18.5h74
q8 0 16 4t13.5 11t9 15.5t3.5 17.5v84q0 12 -5.5 23t-15.5 18t-21 7zM512 195q-39 0 -74 15t-60 40t-40 60t-15 74q0 78 55.5 133.5t133.5 55.5q31 0 60 -9.5t52 -27t40.5 -40.5t27 -52t9.5 -60q0 -51 -25 -95t-69 -69t-95 -25z" />
    <glyph glyph-name="uniE604" unicode="&#xe604;" 
d="M113 530q3 9 9.5 24.5t33 57.5t60.5 76.5t95 68t133 45.5q-39 -56 -76 -146q-1 -2 -8.5 -0.5t-21 -2t-26 -9.5t-24.5 -21.5t-18 -38.5q-8 -2 -19 -4.5t-35 -9t-51.5 -17t-51.5 -23.5zM272 538q-108 -23 -178 -74q-1 -6 -3 -17.5t-3.5 -45.5t2 -67.5t17.5 -79t38 -85.5
q11 -2 27.5 -4.5t66.5 -7.5t87 1v7q0 4 2 15t5.5 21t11 22t17.5 20q-5 13 -12 35.5t-16.5 85t-4.5 116.5q-10 0 -30 15q-21 18 -27 43zM182 116q4 -7 13.5 -19t43.5 -41.5t74.5 -50.5t108 -35t141.5 -7q-94 90 -114 119q-3 -1 -8 -2t-19.5 -1.5t-26.5 2t-25.5 11.5t-20.5 24
q-99 -14 -167 0zM486 109q3 1 6 3.5t10 16t10 33.5q3 1 8.5 3t22.5 10t34 18t41 26.5t45.5 34.5t45.5 44t42 55q29 -2 49 14l2 -3q2 -1 7 -6.5t10.5 -11t12.5 -14t14 -17.5t15 -21t15 -23.5t14 -25t12 -27.5q-2 -7 -8 -20t-28 -48t-50.5 -64.5t-78.5 -61.5t-108 -49
q-1 0 -25 17.5t-60 51t-58 65.5zM865 614q3 -2 6.5 -7t14 -22t19 -36t17 -49t12.5 -61.5t2 -73t-11 -84.5l-50 74q-26 34 -40 45q3 6 6.5 15.5t3.5 33.5t-14 41l3 6q2 4 7.5 17.5t9.5 27.5t8.5 34t5.5 39zM412 642q31 -26 32 -49q6 0 15.5 -1t39 -6.5t58 -13.5t66.5 -24
t71 -36q2 2 5.5 4.5t15 8t23 8.5t27.5 1t30 -11l16 40q14 48 17 104q-1 2 -3.5 5t-11.5 12t-19.5 18.5t-27.5 21.5t-35 23t-43 22t-51.5 19t-59.5 13.5t-67 6.5l-1 -1q-84 -116 -97 -165zM375 477q0 1 2 0.5t6 0.5t8.5 1.5t10 3t11 5.5t11 8.5t10.5 12t8.5 16.5t4.5 22
q14 -1 37.5 -4.5t82 -21.5t102.5 -44q-1 -1 -1.5 -2.5t-1.5 -7t-1.5 -11t-0.5 -13.5t1 -15.5t4 -16t7.5 -16t12 -15.5t17.5 -13q-3 -4 -8 -10.5t-23 -26t-39 -38t-56.5 -42t-74.5 -42.5q-1 3 -3.5 7t-11 14.5t-19 18t-28.5 12t-38 0.5q-4 0 -13 42q-17 70 -17 175z" />
    <glyph glyph-name="uniE605" unicode="&#xe605;" 
d="M559 711v95h-94v-95h-375v-95h48v-475h295l-185 -142l32 -37l227 185l226 -185l32 37l-179 148h300v474h48v90h-375zM839 194h-654v422h654v-422zM322 289v142h143q0 51 -37.5 86.5t-89.5 35.5q-34 0 -63 -17.5t-46.5 -46.5t-17.5 -63q5 -56 34 -96.5t77 -40.5zM370 242
q54 0 98 45t44 97h-142v-142zM744 526h-137v-47h142v47h-5zM744 431h-137v-47h142v47h-5zM744 337h-137v-48h142v48h-5z" />
    <glyph glyph-name="uniE606" unicode="&#xe606;" 
d="M624 75q0 -31 -14.5 -57t-40.5 -41t-57 -15q-47 0 -79.5 33t-32.5 80h224zM587 731q0 15 -6 29t-16 24t-24 16t-29 6q-31 0 -53 -22t-22 -53q0 -6 1 -13q-52 -18 -94.5 -58t-68 -98t-25.5 -122v-103q-1 -2 -1 -5v-14q0 -10 -0.5 -19.5t-2 -23t-3 -25t-4.5 -23.5
t-6.5 -20.5t-8.5 -14t-11 -5.5q-16 0 -27.5 -11t-11.5 -26.5t11 -26.5t27 -11h600q6 0 12 2t10.5 5.5t8 8t5 10.5t1.5 12t-1.5 11.5t-5 10t-8 8t-10.5 5.5t-12 2q-34 0 -37 137q-1 8 -1 12v104q0 39 -9 76t-25.5 68.5t-40 58t-52.5 46t-61 30.5q0 3 0.5 6t0.5 6z" />
    <glyph glyph-name="uniE607" unicode="&#xe607;" 
d="M335.5 599q14.5 0 25 10t10.5 25v142q0 10 -5 18t-13 12.5t-18 4.5q-14 0 -24.5 -10t-10.5 -25v-142q0 -15 10.5 -25t25 -10zM513 599q9 0 17.5 4.5t13 12.5t4.5 18v142q0 10 -4.5 18t-13 12.5t-17.5 4.5q-15 0 -25.5 -10t-10.5 -25v-142q0 -5 1.5 -9.5t3.5 -8.5t5.5 -7
t7.5 -5.5t8.5 -3.5t9.5 -1zM406 743h36v-71h-36v71zM584 743h35v-71h-35v71zM938 65v576q0 44 -31 75t-75 31h-71v-71h71q4 0 9 -1t8.5 -3.5t7 -5.5t6 -7t3.5 -8.5t1 -9.5v-576q0 -10 -4.5 -18t-13 -13t-17.5 -5h-638q-15 0 -25.5 10.5t-10.5 25.5v576q0 14 10.5 24.5
t25.5 10.5h70v71h-70q-22 0 -41.5 -8.5t-34 -22.5t-23 -34t-8.5 -41v-576q0 -29 14.5 -53.5t39 -38.5t53.5 -14h638q42 0 72.5 29t33.5 72v1v3v1v0zM690 599q15 0 25 10t10 25v142q0 10 -4.5 18t-12.5 12.5t-18 4.5q-15 0 -25.5 -10t-10.5 -25v-142q0 -6 2 -11.5t5.5 -9.5
t7.5 -7.5t9.5 -5t11.5 -1.5zM299 456h426q14 0 24.5 10.5t10.5 25.5q0 7 -2.5 13.5t-7.5 11t-11.5 7.5t-13.5 3h-426q-9 0 -17.5 -4.5t-13 -13t-4.5 -17.5q0 -25 23 -33q6 -3 12 -3zM725 352h-426q-9 0 -17.5 -4.5t-13 -13t-4.5 -17.5q0 -15 10.5 -25.5t24.5 -10.5h426
q14 0 24.5 10.5t10.5 25t-10.5 25t-24.5 10.5zM725 170h-426q-14 0 -24.5 -10t-10.5 -25q0 -10 4.5 -18t13 -13t17.5 -5h426q14 0 24.5 10.5t10.5 25.5q0 5 -1 9.5t-3.5 8.5t-6 7t-7 5.5t-8 3.5t-9.5 1z" />
    <glyph glyph-name="uniE608" unicode="&#xe608;" 
d="M186 578h648q12 0 23.5 4.5t19.5 12.5t12.5 19.5t4.5 24t-4.5 23.5t-12.5 19t-19.5 13t-23.5 5h-648q-25 0 -43 -18t-18 -43q0 -16 8 -30t22 -22t31 -8zM834 456h-648q-17 0 -31 -8t-22 -22t-8 -31q0 -25 18 -42.5t43 -17.5h648q16 0 30 8t22 22t8 30q0 10 -3 19.5
t-8.5 17t-13 13t-16.5 8.5t-19 3zM834 213h-648q-25 0 -43 -18t-18 -43t18 -42.5t43 -17.5h648q25 0 42.5 17.5t17.5 42.5q0 7 -1.5 14t-4.5 13t-7 11.5t-9.5 9.5t-11.5 7t-12.5 4.5t-13.5 1.5z" />
    <glyph glyph-name="uniE609" unicode="&#xe609;" 
d="M875 142q-25 19 -79 48t-95 48l-42 19l-104 -191l-15 46l28 57l-57 58l-57 -58l29 -57l-19 -47l-101 192q-160 -72 -215 -115q-25 -19 -45 -62.5t-28 -77.5l-7 -34h888q0 20 -17 72q-25 71 -64 102v0zM517 274q37 0 72 18.5t60.5 48.5t45 65.5t29.5 70.5t10 64
q0 21 -0.5 33.5t-2.5 36.5t-5.5 39t-11 37t-18 36t-27 30t-38 25.5t-50.5 15.5t-64.5 6t-64.5 -6t-50.5 -15.5t-38 -25.5t-27 -30t-18 -36t-11 -37t-5.5 -39t-2.5 -36.5t-0.5 -33.5q0 -36 16 -81.5t43.5 -87.5t69.5 -70t89 -28zM517 274z" />
    <glyph glyph-name="uniE60A" unicode="&#xe60a;" 
d="M638 759q0 20 -55 35q-92 26 -173 -2q-126 -43 -114 -200q2 -37 13 -78q-10 -3 -16 -11.5t-8 -19t0 -22t7 -22.5t13.5 -19.5t19.5 -12.5q2 -1 5 -15.5t15 -40.5t36 -50q9 -9 9 -30t-8 -43.5t-27.5 -42t-45.5 -23.5t-52 -13t-55.5 -25.5t-51 -38t-34 -53.5t-8.5 -70h800
q2 6 4 16t-2 38t-19 52t-55 51t-101 43q-21 5 -37.5 14t-27 19.5t-18 22.5t-10.5 24t-4 23t0.5 20t3.5 15.5t4 8.5q31 31 49 90q18 10 31 31t12.5 45t-19.5 39q5 19 8 33t7.5 41.5t4.5 47t-4.5 44t-15.5 40t-31.5 27t-49.5 12.5z" />
    <glyph glyph-name="uniE60B" unicode="&#xe60b;" 
d="M510 707q-101 0 -172 -70t-71 -168.5t71 -168.5t172 -70t172 70t71 168q0 106 -79 177q-70 62 -164 62zM229 377v220h-5q-2 0 -4 -1q38 83 116.5 133.5t174 50.5t173.5 -50.5t116 -133.5q-2 1 -4 1h-5v-220q47 0 79.5 32t32.5 78q0 30 -15.5 55.5t-41.5 40.5
q-24 68 -73.5 121t-117.5 83t-145 30q-115 0 -207 -65.5t-129 -168.5q-17 -10 -30 -24.5t-20 -33t-7 -38.5q0 -46 33 -78t79 -32v0zM753 251q-103 -94 -243 -94t-242 94q-88 -45 -138.5 -121t-50.5 -177h865q0 101 -51 177t-140 121v0zM753 251z" />
    <glyph glyph-name="uniE60C" unicode="&#xe60c;" 
d="M530 -21q0 -3 -1 -5.5t-3 -4.5t-4.5 -3.5t-5.5 -1.5h-8q-6 0 -10 4.5t-4 10.5v810q0 6 4 10.5t10 4.5h8q4 0 7 -2t5 -5.5t2 -7.5v-810z" />
    <glyph glyph-name="uniE60D" unicode="&#xe60d;" horiz-adv-x="1025" 
d="M928 800h-832q-40 0 -68 -28t-28 -68v-640q0 -40 28 -68t68 -28h832q40 0 68 28t28 68v640q0 26 -13 48t-35 35t-48 13zM944 162l-201 268q-1 2 -4 5.5t-16.5 9.5t-32.5 6q-20 0 -35 -5t-20 -10l-5 -6l-176 -271l-9 -10q-11 -8 -24 -8q-7 0 -13 1.5t-10 4.5t-7.5 5.5
t-4.5 4.5l-1 2l-93 106q-2 3 -7 8.5t-19.5 14t-28 8.5t-27.5 -8.5t-21 -17.5l-7 -9l-102 -126v552q0 13 9.5 22.5t22.5 9.5h800q13 0 22.5 -9.5t9.5 -22.5v-525zM464 512q0 -23 -9 -44t-24 -36t-36 -24t-44 -9q-47 0 -80.5 33t-33.5 80q0 23 9 44t24.5 36t36.5 24t44 9
t44 -9t36 -24t24 -36t9 -44z" />
    <glyph glyph-name="uniE60E" unicode="&#xe60e;" 
d="M289 401l396 396q2 2 5.5 4t7 2.5t7 0t7 -2.5t6.5 -4q4 -5 5.5 -11t0 -12t-5.5 -10l-380 -380l380 -380q4 -4 5.5 -10t0 -12t-5.5 -11q-7 -7 -17 -7t-16 7l-396 396q-7 7 -7 17t7 17z" />
    <glyph glyph-name="uniE60F" unicode="&#xe60f;" 
d="M495 184l-396 396q-7 6 -7 16t7 16.5t16.5 6.5t16.5 -6l380 -380l380 380q7 6 16.5 6t16.5 -6.5t7 -16.5t-7 -16l-396 -396q-7 -7 -17 -7t-17 7z" />
    <glyph glyph-name="uniE610" unicode="&#xe610;" 
d="M716 365l-395 -396q-5 -5 -11 -6.5t-12 0t-10 6.5q-7 7 -7 16.5t7 16.5l379 380l-379 379q-7 7 -7 16.5t7 16.5t16.5 7t16.5 -7l395 -395q7 -7 7 -17q-1 -11 -7 -17z" />
    <glyph glyph-name="uniE611" unicode="&#xe611;" 
d="M491 664l-480 -480q-8 -9 -8 -20.5t8 -19.5q4 -4 9.5 -6.5t11 -2.5t10.5 2.5t9 6.5l461 460l461 -460q3 -4 7 -6t8.5 -2.5t8.5 0t8.5 2.5t7.5 6q5 5 7 12.5t0 14.5t-7 13l-480 480q-9 8 -21 8t-21 -8z" />
    <glyph glyph-name="uniE612" unicode="&#xe612;" 
d="M476 40q-103 0 -190.5 51t-138.5 138t-51 190t51 190.5t138.5 138.5t190.5 51q77 0 147 -30t121 -81t81 -121t30 -148q0 -44 -10 -86.5t-28.5 -80t-44.5 -70.5t-59 -59t-70.5 -44.5t-80 -28.5t-86.5 -10zM475.5 761q-92.5 0 -171 -46t-124.5 -124.5t-46 -171.5
q0 -55 17.5 -107t49 -94t73.5 -73.5t94 -49t108 -17.5q92 0 170.5 46t124.5 124.5t46 171t-46 171t-124.5 124.5t-171 46zM910 -31q-4 0 -7.5 1.5t-5.5 3.5l-182 170q-6 6 -6 14t5 14q4 3 9 4.5t10 0.5t8 -5l182 -170q6 -5 6 -13t-5 -14q-2 -2 -4.5 -3.5t-5 -2t-4.5 -0.5z
" />
    <glyph glyph-name="uniE613" unicode="&#xe613;" horiz-adv-x="1028" 
d="M515.5 -38q-114.5 0 -212 56.5t-154 154t-56.5 211.5t56.5 211.5t154 154t211.5 56.5q86 0 164 -33.5t134.5 -90t90 -134.5t33.5 -164q0 -114 -56.5 -211.5t-153.5 -154t-211.5 -56.5zM515 769q-104 0 -193 -51.5t-140.5 -140.5t-51.5 -193t51.5 -193t140.5 -140.5
t193.5 -51.5t193 51.5t140 140.5t51.5 193q0 78 -30.5 149.5t-82 123t-123 82t-149.5 30.5zM708 368q-2 -3 -5.5 -4t-7.5 -1h-359q-8 0 -13 5t-5 13q0 5 2.5 9t6.5 6.5t9 2.5h359q8 0 13.5 -5.5t5.5 -13t-6 -12.5zM528 187q-5 -5 -12.5 -5t-13 5t-5.5 13v368q0 5 2.5 9
t6.5 6.5t9 2.5q3 0 6 -0.5t5 -2.5l4 -4q2 -2 3 -5t0 -6v-368q0 -8 -5 -13z" />
    <glyph glyph-name="uniE614" unicode="&#xe614;" horiz-adv-x="1028" 
d="M515.5 -38q-114.5 0 -212 56.5t-154 154t-56.5 211.5t56.5 211.5t154 154t211.5 56.5q86 0 164 -33.5t134.5 -90t90 -134.5t33.5 -164q0 -114 -56.5 -211.5t-153.5 -154t-211.5 -56.5zM515 769q-104 0 -193 -51.5t-140.5 -140.5t-51.5 -193t51.5 -193t140.5 -140.5
t193.5 -51.5t193 51.5t140 140.5t51.5 193q0 78 -30.5 149.5t-82 123t-123 82t-149.5 30.5zM708 368q-2 -3 -5.5 -4t-7.5 -1h-359q-8 0 -13 5t-5 13q0 5 2.5 9t6.5 6.5t9 2.5h359q8 0 13.5 -5.5t5.5 -13t-6 -12.5z" />
    <glyph glyph-name="uniE615" unicode="&#xe615;" 
d="M896 683q18 0 30.5 -12.5t12.5 -30.5t-13 -30l-512 -512q-12 -13 -30 -13t-30 13l-256 256q-13 12 -13 30t12.5 30.5t30.5 12.5t30 -13l226 -226l482 482q12 13 30 13z" />
    <glyph glyph-name="uniE616" unicode="&#xe616;" 
d="M831 748q19 0 32 -13t13 -32q0 -20 -13 -33l-287 -286l287 -286q13 -13 13 -33q0 -19 -13 -32t-32 -13q-20 0 -33 13l-286 287l-286 -287q-13 -13 -33 -13q-19 0 -32 13t-13 32q0 20 13 33l287 286l-287 286q-13 13 -13 33q0 19 13 32t32 13q20 0 33 -13l286 -287
l286 287q13 13 33 13z" />
    <glyph glyph-name="uniE617" unicode="&#xe617;" 
d="M128 427h768q18 0 30.5 -12.5t12.5 -30.5t-12.5 -30.5t-30.5 -12.5h-768q-18 0 -30.5 12.5t-12.5 30.5t12.5 30.5t30.5 12.5z" />
    <glyph glyph-name="uniE618" unicode="&#xe618;" 
d="M512 747q18 0 30.5 -12.5t12.5 -30.5v-341h341q18 0 30.5 -12.5t12.5 -30.5t-12.5 -30.5t-30.5 -12.5h-341v-341q0 -18 -12.5 -30.5t-30.5 -12.5t-30.5 12.5t-12.5 30.5v341h-341q-18 0 -30.5 12.5t-12.5 30.5t12.5 30.5t30.5 12.5h341v341q0 18 12.5 30.5t30.5 12.5z
" />
    <glyph glyph-name="uniE619" unicode="&#xe619;" 
d="M512 797q16 0 26.5 -11t10.5 -27v-434l124 123q11 11 26 11q17 0 27.5 -10.5t10.5 -26.5t-11 -27l-187 -188q-11 -10 -27 -10t-27 10l-187 188q-11 11 -11 27q0 15 11 26t26 11q16 0 27 -11l123 -123v434q0 16 11 27t27 11zM887 272q16 0 26.5 -11t10.5 -27v-150
q0 -47 -32 -79q-33 -33 -79 -33h-601q-46 0 -80 32q-33 34 -33 80v150q0 16 11 27t27 10.5t26.5 -11t10.5 -26.5v-150q0 -16 11 -26.5t27 -10.5h601q15 0 25.5 10.5t10.5 26.5v150q0 16 11 27t27 11z" />
    <glyph glyph-name="uniE61A" unicode="&#xe61a;" 
d="M512 795q16 0 27 -11l187 -188q11 -10 11 -26t-10.5 -27t-26.5 -11t-27 11l-123 124v-435q0 -15 -11 -26t-27 -11t-26.5 11t-10.5 26v435l-124 -124q-11 -11 -26 -11q-16 0 -27 11t-11 27q0 15 11 26l187 188q11 11 27 11zM887 270q16 0 26.5 -11t10.5 -27v-150
q0 -47 -32 -79q-33 -33 -79 -33h-601q-46 0 -80 33q-33 33 -33 79v150q0 16 11 27t27 11t26.5 -11t10.5 -27v-150q0 -15 11 -26t27 -11h601q15 0 25.5 11t10.5 26v150q0 16 11 27t27 11z" />
    <glyph glyph-name="uniE61B" unicode="&#xe61b;" 
d="M785 -37q-6 0 -11 3l-262 142l-261 -142q-14 -8 -26.5 1t-9.5 25l47 285l-189 190q-11 10 -7 25q1 2 2.5 4.5t3.5 4.5t4 3.5t4.5 2.5t5.5 2l286 47l118 237q7 14 22.5 14t21.5 -14l119 -237l285 -47q5 -1 9 -3.5t7 -6t4 -7.5q5 -15 -6 -25l-190 -190l48 -285
q2 -16 -10 -25q-7 -4 -15 -4zM512 161q3 0 6 -0.5t6 -2.5l228 -124l-41 247q-2 13 7 22l165 165l-251 41q-12 2 -18 14l-102 204l-102 -204q-2 -6 -7 -9.5t-11 -4.5l-250 -41l164 -165q9 -9 7 -22l-41 -247l228 124q3 2 6 2.5t6 0.5z" />
    <glyph glyph-name="uniE61C" unicode="&#xe61c;" 
d="M560 799q-10 4 -21.5 6t-23 0.5t-22 -6t-19.5 -12.5l-229 -212h-109q-19 0 -35.5 -9.5t-26 -26t-9.5 -36.5v-239q0 -30 20.5 -50.5t50.5 -20.5h109l230 -213q22 -18 51 -18q8 0 16.5 1.5t16.5 5.5q44 19 49 67v4v4v681v2q-1 24 -13.5 43t-34.5 29zM564 56v-2v-3
q-1 -8 -4.5 -15t-9 -12.5t-13 -9t-15.5 -3.5t-15.5 2.5t-14.5 7.5l-225 209q-2 2 -4.5 3t-5.5 1h-4h-110q-10 0 -17.5 4.5t-12 12.5t-4.5 17v231q0 10 4.5 17.5t12 12t17.5 4.5h109h1q7 0 13 4l226 210q21 17 46 6t26 -38v-2v-657zM911 589q-42 83 -115 144q-2 2 -5 3t-6 1
t-5.5 -1t-5 -2.5t-4.5 -3.5q-10 -14 3 -25q72 -60 111 -143t39 -177q0 -93 -38.5 -176t-110.5 -143q-13 -11 -2 -24q4 -7 12 -7.5t14 4.5q71 60 113 143q48 96 48 203q0 108 -48 204zM693 580q-3 3 -6.5 4t-7 0.5t-7 -2.5t-5.5 -6q-9 -13 4 -24q25 -20 43 -47t28 -58t10 -63
q0 -49 -21 -93t-59 -74q-12 -11 -3 -24q5 -7 12.5 -8t13.5 4q29 24 50 55t32 66.5t11 73.5q0 28 -6.5 56t-18.5 53t-30 47.5t-40 39.5z" />
    <glyph glyph-name="uniE61D" unicode="&#xe61d;" 
d="M748 -121h-472q-44 0 -74.5 30.5t-30.5 74.5v630q0 43 30.5 74t74.5 31h315h22q10 0 16 -0.5t10 -0.5h4v1l210 -210v-53v-472q0 -22 -8 -41.5t-22.5 -33.5t-33.5 -22t-41 -8zM643 666v-105q0 -22 15.5 -37t37.5 -15h105zM801 456h-105q-44 0 -74.5 31t-30.5 74l-1 105
h-314q-9 0 -17 -2.5t-14.5 -7.5t-11 -11.5t-7.5 -14.5t-3 -16v-630q0 -15 7 -27t19.5 -19t26.5 -7h472q22 0 37.5 15.5t15.5 37.5v472zM670 89h-316q-7 0 -13 3.5t-9.5 9.5t-3.5 13q0 11 8 18.5t18 7.5h316q10 0 18 -7.5t8 -18.5t-8 -18.5t-18 -7.5zM670 246h-316
q-7 0 -13 3.5t-9.5 9.5t-3.5 13.5t3.5 13.5t9.5 9.5t13 3.5h316q10 0 18 -8t8 -19t-8 -18.5t-18 -7.5z" />
    <glyph glyph-name="uniE61E" unicode="&#xe61e;" 
d="M651 96q0 5 -2 9.5t-6 7.5t-9 3h-244q-7 0 -12 -6t-5 -14v-78h-174v-59h626v59h-174v78zM903 809h-782q-16 0 -29.5 -8t-21.5 -21.5t-8 -29.5v-548q0 -24 17 -41t42 -17h782q25 0 42 17t17 41v548q0 12 -4.5 23t-12.5 19t-19 12.5t-23 4.5v0zM903 222q0 -4 -1.5 -7.5
t-4 -6t-6 -4t-7.5 -1.5h-744q-5 0 -9.5 2.5t-7 7t-2.5 9.5v509q0 8 5.5 13.5t13.5 5.5h744q8 0 13.5 -5.5t5.5 -13.5v-509zM703 260h106v308h-106v-308zM534 260h105v403h-105v-403zM216 260h106v118h-106v-118zM364 260h106v213h-106v-213z" />
    <glyph glyph-name="uniE61F" unicode="&#xe61f;" 
d="M117 764zM677 49q-29 0 -97 -24t-95 -24q-30 0 -98.5 24t-92.5 24q-15 0 -32 -5q-8 -2 -15 -4.5t-13 -4.5q-11 -4 -27 -11q-10 -5 -15 -7t-12 -4.5t-10 -2.5q-2 1 -3.5 1.5t-2.5 1.5q-3 1 -3 6v6q0 3 1 7q2 8 5 19l8 25q5 14 10 31q12 33 22 63l19 57q9 28 14 45l6 16
h575q28 -159 40 -241q2 -10 2 -18v-7q-1 -1 -1 -2v-3q-1 -2 -2.5 -4t-2.5 -3q-2 0 -4 -0.5t-4 -1.5q-1 -1 -4 -0.5t-7 1.5l-7 3l-6 2q-5 2 -17 6q-22 9 -36 13l-11 4q-6 1 -14 2.5t-17 3.5q-4 1 -7 2l-8 1q-4 1 -8 1l-8 1h-7h-7q-7 1 -8 1v0zM773 336h-479q-19 0 -33.5 14
t-14.5 34q20 27 65 96q36 48 79 48h71l24 192l11 14q7 7 26 20t35 13t35 -11l8 -6q4 -3 7.5 -6.5t6.5 -6t5 -5.5l10 -12l-24 -192h71q20 0 43 -13.5t39 -37.5q44 -69 63 -93q0 -22 -14.5 -35t-33.5 -13v0z" />
    <glyph glyph-name="uniE620" unicode="&#xe620;" 
d="M68 772v-776h888v776h-888zM401 273v166h222v-166h-222zM623 218v-167h-222v167h222zM623 661v-166h-222v166h222zM346 661v-166h-222v166h222zM124 439h222v-166h-222v166zM678 439h222v-166h-222v166zM678 495v166h222v-166h-222zM124 218h222v-167h-222v167zM678 51
v167h222v-167h-222z" />
    <glyph glyph-name="uniE622" unicode="&#xe622;" 
d="M863 304v-292q0 -16 -11.5 -27.5t-27.5 -11.5h-234v234h-156v-234h-234q-16 0 -27.5 11.5t-11.5 27.5v292q0 1 3 2t3 2l350 289l351 -289q1 -1 1 -4h-6zM999 346l-38 -45q-5 -5 -13 -7h-1q-8 0 -13 5l-422 351l-422 -351q-7 -5 -14 -5q-8 2 -13 7l-38 45q-5 6 -4.5 14.5
t6.5 13.5l439 365q19 16 46 16t46 -16l149 -125v119q0 9 5.5 14.5t14.5 5.5h117q8 0 13.5 -5.5t5.5 -14.5v-248l134 -111q6 -5 6.5 -13.5t-4.5 -14.5z" />
  </font>
</defs>
</svg>
